<svg xmlns="http://www.w3.org/2000/svg" viewBox="0 0 470 470" font-family="Georgia, serif">
<defs><marker id="arr" viewBox="0 0 10 10" refX="9" refY="5" markerWidth="7" markerHeight="7" orient="auto-start-reverse"><path d="M0 0 L10 5 L0 10 z" fill="#5b7c99"/></marker><marker id="arrg" viewBox="0 0 10 10" refX="9" refY="5" markerWidth="7" markerHeight="7" orient="auto-start-reverse"><path d="M0 0 L10 5 L0 10 z" fill="#b0b0b0"/></marker></defs>
<line x1="155.7" y1="359.3" x2="215.6" y2="280.5" stroke="#5b7c99" stroke-width="2" marker-end="url(#arr)"/>
<line x1="314.3" y1="359.3" x2="254.4" y2="280.5" stroke="#b0b0b0" stroke-width="1.6" stroke-dasharray="5 4" marker-end="url(#arrg)"/>
<line x1="235.0" y1="229.0" x2="235.0" y2="162.0" stroke="#5b7c99" stroke-width="2" marker-end="url(#arr)"/>
<line x1="235.0" y1="104.0" x2="235.0" y2="52.0" stroke="#5b7c99" stroke-width="2" marker-end="url(#arr)"/>
<line x1="140" y1="380" x2="330" y2="380" stroke="#d8c9a3" stroke-width="1.2"/>
<circle cx="140" cy="380" r="26" fill="#f7f4ec" stroke="#3a3a3a" stroke-width="1.5"/>
<text x="140" y="385" text-anchor="middle" font-size="15" fill="#1a1a1a">w0</text>
<text x="140" y="422" text-anchor="middle" font-size="11.5" fill="#333">∅</text>
<title>w0: believes {∅}</title>
<circle cx="330" cy="380" r="26" fill="#f7f4ec" stroke="#3a3a3a" stroke-width="1.5"/>
<text x="330" y="385" text-anchor="middle" font-size="15" fill="#1a1a1a">w1</text>
<text x="330" y="422" text-anchor="middle" font-size="11.5" fill="#333">∅</text>
<text x="330" y="436" text-anchor="middle" font-size="11" fill="#a03030">⊘ p, ◯p</text>
<title>w1: believes {∅}, promises-false {p, ◯p}</title>
<circle cx="235" cy="255" r="26" fill="#f7f4ec" stroke="#3a3a3a" stroke-width="1.5"/>
<circle cx="235" cy="255" r="31" fill="none" stroke="#c0392b" stroke-width="2.5"/>
<text x="235" y="260" text-anchor="middle" font-size="15" fill="#1a1a1a">w2</text>
<text x="235" y="297" text-anchor="middle" font-size="11.5" fill="#333">◯p</text>
<title>w2: believes {◯p}</title>
<circle cx="235" cy="130" r="26" fill="#f7f4ec" stroke="#3a3a3a" stroke-width="1.5"/>
<text x="235" y="135" text-anchor="middle" font-size="15" fill="#1a1a1a">w3</text>
<text x="235" y="172" text-anchor="middle" font-size="11.5" fill="#333">◯p, p</text>
<title>w3: believes {◯p, p}</title>
<circle cx="235" cy="20" r="26" fill="#3a3a3a" stroke="#3a3a3a" stroke-width="1.5"/>
<text x="235" y="25" text-anchor="middle" font-size="15" fill="#f7f4ec">w4</text>
<text x="235" y="62" text-anchor="middle" font-size="11.5" fill="#333">⊥ (fallible)</text>
<title>w4: believes {⊥ (fallible)}, fallible</title>
</svg>