<svg xmlns="http://www.w3.org/2000/svg" viewBox="0 0 880 1040" font-family="Georgia, serif">
<defs><marker id="arr" viewBox="0 0 10 10" refX="9" refY="5" markerWidth="7" markerHeight="7" orient="auto-start-reverse"><path d="M0 0 L10 5 L0 10 z" fill="#5b7c99"/></marker><marker id="arrg" viewBox="0 0 10 10" refX="9" refY="5" markerWidth="7" markerHeight="7" orient="auto-start-reverse"><path d="M0 0 L10 5 L0 10 z" fill="#b0b0b0"/></marker></defs>
<line x1="430.0" y1="874.0" x2="430.0" y2="792.0" stroke="#5b7c99" stroke-width="2" marker-end="url(#arr)"/>
<line x1="409.5" y1="884.0" x2="275.3" y2="779.6" stroke="#5b7c99" stroke-width="2" marker-end="url(#arr)"/>
<line x1="450.5" y1="884.0" x2="584.7" y2="779.6" stroke="#5b7c99" stroke-width="2" marker-end="url(#arr)"/>
<line x1="260.9" y1="884.6" x2="404.2" y2="779.0" stroke="#b0b0b0" stroke-width="1.6" stroke-dasharray="5 4" marker-end="url(#arrg)"/>
<line x1="241.9" y1="874.1" x2="247.7" y2="791.9" stroke="#5b7c99" stroke-width="2" marker-end="url(#arr)"/>
<line x1="264.3" y1="890.8" x2="580.1" y2="771.3" stroke="#b0b0b0" stroke-width="1.6" stroke-dasharray="5 4" marker-end="url(#arrg)"/>
<line x1="599.1" y1="884.6" x2="455.8" y2="779.0" stroke="#b0b0b0" stroke-width="1.6" stroke-dasharray="5 4" marker-end="url(#arrg)"/>
<line x1="595.7" y1="890.8" x2="279.9" y2="771.3" stroke="#b0b0b0" stroke-width="1.6" stroke-dasharray="5 4" marker-end="url(#arrg)"/>
<line x1="618.1" y1="874.1" x2="612.3" y2="791.9" stroke="#5b7c99" stroke-width="2" marker-end="url(#arr)"/>
<line x1="430.0" y1="954.0" x2="430.0" y2="792.0" stroke="#b0b0b0" stroke-width="1.6" stroke-dasharray="5 4" marker-end="url(#arrg)"/>
<line x1="413.5" y1="959.9" x2="270.3" y2="784.8" stroke="#b0b0b0" stroke-width="1.6" stroke-dasharray="5 4" marker-end="url(#arrg)"/>
<line x1="446.5" y1="959.9" x2="589.7" y2="784.8" stroke="#b0b0b0" stroke-width="1.6" stroke-dasharray="5 4" marker-end="url(#arrg)"/>
<line x1="410.5" y1="742.8" x2="284.0" y2="631.2" stroke="#5b7c99" stroke-width="2" marker-end="url(#arr)"/>
<line x1="406.6" y1="748.7" x2="148.8" y2="623.9" stroke="#5b7c99" stroke-width="2" marker-end="url(#arr)"/>
<line x1="449.5" y1="742.8" x2="576.0" y2="631.2" stroke="#5b7c99" stroke-width="2" marker-end="url(#arr)"/>
<line x1="453.4" y1="748.7" x2="711.2" y2="623.9" stroke="#5b7c99" stroke-width="2" marker-end="url(#arr)"/>
<line x1="251.7" y1="734.1" x2="257.9" y2="641.9" stroke="#b0b0b0" stroke-width="1.6" stroke-dasharray="5 4" marker-end="url(#arrg)"/>
<line x1="233.0" y1="740.4" x2="141.0" y2="634.2" stroke="#b0b0b0" stroke-width="1.6" stroke-dasharray="5 4" marker-end="url(#arrg)"/>
<line x1="273.9" y1="749.8" x2="570.6" y2="622.6" stroke="#b0b0b0" stroke-width="1.6" stroke-dasharray="5 4" marker-end="url(#arrg)"/>
<line x1="274.9" y1="752.4" x2="709.4" y2="619.4" stroke="#5b7c99" stroke-width="2" marker-end="url(#arr)"/>
<line x1="586.1" y1="749.8" x2="289.4" y2="622.6" stroke="#b0b0b0" stroke-width="1.6" stroke-dasharray="5 4" marker-end="url(#arrg)"/>
<line x1="585.1" y1="752.4" x2="150.6" y2="619.4" stroke="#5b7c99" stroke-width="2" marker-end="url(#arr)"/>
<line x1="608.3" y1="734.1" x2="602.1" y2="641.9" stroke="#b0b0b0" stroke-width="1.6" stroke-dasharray="5 4" marker-end="url(#arrg)"/>
<line x1="627.0" y1="740.4" x2="719.0" y2="634.2" stroke="#b0b0b0" stroke-width="1.6" stroke-dasharray="5 4" marker-end="url(#arrg)"/>
<line x1="284.0" y1="600.1" x2="400.4" y2="552.2" stroke="#5b7c99" stroke-width="2" marker-end="url(#arr)"/>
<line x1="257.3" y1="584.1" x2="243.3" y2="451.8" stroke="#5b7c99" stroke-width="2" marker-end="url(#arr)"/>
<line x1="243.3" y1="590.1" x2="120.6" y2="444.5" stroke="#5b7c99" stroke-width="2" marker-end="url(#arr)"/>
<line x1="145.4" y1="604.3" x2="398.8" y2="547.0" stroke="#b0b0b0" stroke-width="1.6" stroke-dasharray="5 4" marker-end="url(#arrg)"/>
<line x1="133.9" y1="588.0" x2="222.9" y2="447.1" stroke="#b0b0b0" stroke-width="1.6" stroke-dasharray="5 4" marker-end="url(#arrg)"/>
<line x1="117.3" y1="584.1" x2="103.3" y2="451.8" stroke="#5b7c99" stroke-width="2" marker-end="url(#arr)"/>
<line x1="576.0" y1="600.1" x2="459.6" y2="552.2" stroke="#5b7c99" stroke-width="2" marker-end="url(#arr)"/>
<line x1="602.7" y1="584.1" x2="616.7" y2="451.8" stroke="#5b7c99" stroke-width="2" marker-end="url(#arr)"/>
<line x1="616.7" y1="590.1" x2="739.4" y2="444.5" stroke="#5b7c99" stroke-width="2" marker-end="url(#arr)"/>
<line x1="714.6" y1="604.3" x2="461.2" y2="547.0" stroke="#b0b0b0" stroke-width="1.6" stroke-dasharray="5 4" marker-end="url(#arrg)"/>
<line x1="726.1" y1="588.0" x2="637.1" y2="447.1" stroke="#b0b0b0" stroke-width="1.6" stroke-dasharray="5 4" marker-end="url(#arrg)"/>
<line x1="742.7" y1="584.1" x2="756.7" y2="451.8" stroke="#5b7c99" stroke-width="2" marker-end="url(#arr)"/>
<line x1="418.7" y1="516.6" x2="323.8" y2="318.8" stroke="#5b7c99" stroke-width="2" marker-end="url(#arr)"/>
<line x1="441.3" y1="516.6" x2="536.2" y2="318.8" stroke="#5b7c99" stroke-width="2" marker-end="url(#arr)"/>
<line x1="252.3" y1="397.1" x2="294.8" y2="318.2" stroke="#5b7c99" stroke-width="2" marker-end="url(#arr)"/>
<line x1="122.1" y1="406.3" x2="282.8" y2="306.8" stroke="#b0b0b0" stroke-width="1.6" stroke-dasharray="5 4" marker-end="url(#arrg)"/>
<line x1="328.4" y1="271.6" x2="407.4" y2="192.6" stroke="#5b7c99" stroke-width="2" marker-end="url(#arr)"/>
<line x1="607.7" y1="397.1" x2="565.2" y2="318.2" stroke="#5b7c99" stroke-width="2" marker-end="url(#arr)"/>
<line x1="737.9" y1="406.3" x2="577.2" y2="306.8" stroke="#b0b0b0" stroke-width="1.6" stroke-dasharray="5 4" marker-end="url(#arrg)"/>
<line x1="531.6" y1="271.6" x2="452.6" y2="192.6" stroke="#5b7c99" stroke-width="2" marker-end="url(#arr)"/>
<line x1="430.0" y1="144.0" x2="430.0" y2="82.0" stroke="#5b7c99" stroke-width="2" marker-end="url(#arr)"/>
<line x1="430" y1="900" x2="240" y2="900" stroke="#d8c9a3" stroke-width="1.2"/>
<line x1="430" y1="900" x2="620" y2="900" stroke="#d8c9a3" stroke-width="1.2"/>
<line x1="430" y1="900" x2="430" y2="980" stroke="#d8c9a3" stroke-width="1.2"/>
<line x1="240" y1="900" x2="620" y2="900" stroke="#d8c9a3" stroke-width="1.2"/>
<line x1="240" y1="900" x2="430" y2="980" stroke="#d8c9a3" stroke-width="1.2"/>
<line x1="620" y1="900" x2="430" y2="980" stroke="#d8c9a3" stroke-width="1.2"/>
<line x1="430" y1="760" x2="250" y2="760" stroke="#d8c9a3" stroke-width="1.2"/>
<line x1="430" y1="760" x2="610" y2="760" stroke="#d8c9a3" stroke-width="1.2"/>
<line x1="250" y1="760" x2="610" y2="760" stroke="#d8c9a3" stroke-width="1.2"/>
<line x1="260" y1="610" x2="120" y2="610" stroke="#d8c9a3" stroke-width="1.2"/>
<line x1="600" y1="610" x2="740" y2="610" stroke="#d8c9a3" stroke-width="1.2"/>
<line x1="240" y1="420" x2="100" y2="420" stroke="#d8c9a3" stroke-width="1.2"/>
<line x1="620" y1="420" x2="760" y2="420" stroke="#d8c9a3" stroke-width="1.2"/>
<circle cx="430" cy="900" r="26" fill="#f7f4ec" stroke="#3a3a3a" stroke-width="1.5"/>
<text x="430" y="905" text-anchor="middle" font-size="15" fill="#1a1a1a">w0</text>
<text x="430" y="942" text-anchor="middle" font-size="11.5" fill="#333">∅</text>
<title>w0: believes {∅}</title>
<circle cx="240" cy="900" r="26" fill="#f7f4ec" stroke="#3a3a3a" stroke-width="1.5"/>
<text x="240" y="905" text-anchor="middle" font-size="15" fill="#1a1a1a">w1</text>
<text x="240" y="942" text-anchor="middle" font-size="11.5" fill="#333">∅</text>
<text x="240" y="956" text-anchor="middle" font-size="11" fill="#a03030">⊘ ◯p, p</text>
<title>w1: believes {∅}, promises-false {◯p, p}</title>
<circle cx="620" cy="900" r="26" fill="#f7f4ec" stroke="#3a3a3a" stroke-width="1.5"/>
<text x="620" y="905" text-anchor="middle" font-size="15" fill="#1a1a1a">w2</text>
<text x="620" y="942" text-anchor="middle" font-size="11.5" fill="#333">∅</text>
<text x="620" y="956" text-anchor="middle" font-size="11" fill="#a03030">⊘ ◯q, q</text>
<title>w2: believes {∅}, promises-false {◯q, q}</title>
<circle cx="430" cy="980" r="26" fill="#f7f4ec" stroke="#3a3a3a" stroke-width="1.5"/>
<text x="430" y="985" text-anchor="middle" font-size="15" fill="#1a1a1a">w3</text>
<text x="430" y="1022" text-anchor="middle" font-size="11.5" fill="#333">∅</text>
<text x="430" y="1036" text-anchor="middle" font-size="11" fill="#a03030">⊘ ◯p∨◯q, ◯p, ◯q, ◯(p∨q), p∨q, p, q</text>
<title>w3: believes {∅}, promises-false {◯p∨◯q, ◯p, ◯q, ◯(p∨q), p∨q, p, q}</title>
<circle cx="430" cy="760" r="26" fill="#f7f4ec" stroke="#3a3a3a" stroke-width="1.5"/>
<circle cx="430" cy="760" r="31" fill="none" stroke="#c0392b" stroke-width="2.5"/>
<text x="430" y="765" text-anchor="middle" font-size="15" fill="#1a1a1a">w4</text>
<text x="430" y="802" text-anchor="middle" font-size="11.5" fill="#333">◯(p∨q)</text>
<title>w4: believes {◯(p∨q)}</title>
<circle cx="250" cy="760" r="26" fill="#f7f4ec" stroke="#3a3a3a" stroke-width="1.5"/>
<text x="250" y="765" text-anchor="middle" font-size="15" fill="#1a1a1a">w5</text>
<text x="250" y="802" text-anchor="middle" font-size="11.5" fill="#333">◯(p∨q)</text>
<text x="250" y="816" text-anchor="middle" font-size="11" fill="#a03030">⊘ ◯p, p</text>
<title>w5: believes {◯(p∨q)}, promises-false {◯p, p}</title>
<circle cx="610" cy="760" r="26" fill="#f7f4ec" stroke="#3a3a3a" stroke-width="1.5"/>
<text x="610" y="765" text-anchor="middle" font-size="15" fill="#1a1a1a">w6</text>
<text x="610" y="802" text-anchor="middle" font-size="11.5" fill="#333">◯(p∨q)</text>
<text x="610" y="816" text-anchor="middle" font-size="11" fill="#a03030">⊘ ◯q, q</text>
<title>w6: believes {◯(p∨q)}, promises-false {◯q, q}</title>
<circle cx="260" cy="610" r="26" fill="#f7f4ec" stroke="#3a3a3a" stroke-width="1.5"/>
<text x="260" y="615" text-anchor="middle" font-size="15" fill="#1a1a1a">w7</text>
<text x="260" y="652" text-anchor="middle" font-size="11.5" fill="#333">◯p, ◯(p∨q)</text>
<title>w7: believes {◯p, ◯(p∨q)}</title>
<circle cx="120" cy="610" r="26" fill="#f7f4ec" stroke="#3a3a3a" stroke-width="1.5"/>
<text x="120" y="615" text-anchor="middle" font-size="15" fill="#1a1a1a">w8</text>
<text x="120" y="652" text-anchor="middle" font-size="11.5" fill="#333">◯p, ◯(p∨q)</text>
<text x="120" y="666" text-anchor="middle" font-size="11" fill="#a03030">⊘ ◯q, q</text>
<title>w8: believes {◯p, ◯(p∨q)}, promises-false {◯q, q}</title>
<circle cx="600" cy="610" r="26" fill="#f7f4ec" stroke="#3a3a3a" stroke-width="1.5"/>
<text x="600" y="615" text-anchor="middle" font-size="15" fill="#1a1a1a">w9</text>
<text x="600" y="652" text-anchor="middle" font-size="11.5" fill="#333">◯q, ◯(p∨q)</text>
<title>w9: believes {◯q, ◯(p∨q)}</title>
<circle cx="740" cy="610" r="26" fill="#f7f4ec" stroke="#3a3a3a" stroke-width="1.5"/>
<text x="740" y="615" text-anchor="middle" font-size="15" fill="#1a1a1a">w10</text>
<text x="740" y="652" text-anchor="middle" font-size="11.5" fill="#333">◯q, ◯(p∨q)</text>
<text x="740" y="666" text-anchor="middle" font-size="11" fill="#a03030">⊘ ◯p, p</text>
<title>w10: believes {◯q, ◯(p∨q)}, promises-false {◯p, p}</title>
<circle cx="430" cy="540" r="26" fill="#f7f4ec" stroke="#3a3a3a" stroke-width="1.5"/>
<text x="430" y="545" text-anchor="middle" font-size="15" fill="#1a1a1a">w11</text>
<text x="430" y="582" text-anchor="middle" font-size="11.5" fill="#333">◯p, ◯q, ◯(p∨q)</text>
<title>w11: believes {◯p, ◯q, ◯(p∨q)}</title>
<circle cx="240" cy="420" r="26" fill="#f7f4ec" stroke="#3a3a3a" stroke-width="1.5"/>
<text x="240" y="425" text-anchor="middle" font-size="15" fill="#1a1a1a">w12</text>
<text x="240" y="462" text-anchor="middle" font-size="11.5" fill="#333">p, ◯p, ◯(p∨q)</text>
<title>w12: believes {p, ◯p, ◯(p∨q)}</title>
<circle cx="100" cy="420" r="26" fill="#f7f4ec" stroke="#3a3a3a" stroke-width="1.5"/>
<text x="100" y="425" text-anchor="middle" font-size="15" fill="#1a1a1a">w13</text>
<text x="100" y="462" text-anchor="middle" font-size="11.5" fill="#333">p, ◯p, ◯(p∨q)</text>
<text x="100" y="476" text-anchor="middle" font-size="11" fill="#a03030">⊘ ◯q, q</text>
<title>w13: believes {p, ◯p, ◯(p∨q)}, promises-false {◯q, q}</title>
<circle cx="310" cy="290" r="26" fill="#f7f4ec" stroke="#3a3a3a" stroke-width="1.5"/>
<text x="310" y="295" text-anchor="middle" font-size="15" fill="#1a1a1a">w14</text>
<text x="310" y="332" text-anchor="middle" font-size="11.5" fill="#333">p, ◯p, ◯q, ◯(p∨q)</text>
<title>w14: believes {p, ◯p, ◯q, ◯(p∨q)}</title>
<circle cx="620" cy="420" r="26" fill="#f7f4ec" stroke="#3a3a3a" stroke-width="1.5"/>
<text x="620" y="425" text-anchor="middle" font-size="15" fill="#1a1a1a">w15</text>
<text x="620" y="462" text-anchor="middle" font-size="11.5" fill="#333">q, ◯q, ◯(p∨q)</text>
<title>w15: believes {q, ◯q, ◯(p∨q)}</title>
<circle cx="760" cy="420" r="26" fill="#f7f4ec" stroke="#3a3a3a" stroke-width="1.5"/>
<text x="760" y="425" text-anchor="middle" font-size="15" fill="#1a1a1a">w16</text>
<text x="760" y="462" text-anchor="middle" font-size="11.5" fill="#333">q, ◯q, ◯(p∨q)</text>
<text x="760" y="476" text-anchor="middle" font-size="11" fill="#a03030">⊘ ◯p, p</text>
<title>w16: believes {q, ◯q, ◯(p∨q)}, promises-false {◯p, p}</title>
<circle cx="550" cy="290" r="26" fill="#f7f4ec" stroke="#3a3a3a" stroke-width="1.5"/>
<text x="550" y="295" text-anchor="middle" font-size="15" fill="#1a1a1a">w17</text>
<text x="550" y="332" text-anchor="middle" font-size="11.5" fill="#333">q, ◯p, ◯q, ◯(p∨q)</text>
<title>w17: believes {q, ◯p, ◯q, ◯(p∨q)}</title>
<circle cx="430" cy="170" r="26" fill="#f7f4ec" stroke="#3a3a3a" stroke-width="1.5"/>
<text x="430" y="175" text-anchor="middle" font-size="15" fill="#1a1a1a">w18</text>
<text x="430" y="212" text-anchor="middle" font-size="11.5" fill="#333">p, q, ◯p, ◯q, ◯(p∨q)</text>
<title>w18: believes {p, q, ◯p, ◯q, ◯(p∨q)}</title>
<circle cx="430" cy="50" r="26" fill="#3a3a3a" stroke="#3a3a3a" stroke-width="1.5"/>
<text x="430" y="55" text-anchor="middle" font-size="15" fill="#f7f4ec">w19</text>
<text x="430" y="92" text-anchor="middle" font-size="11.5" fill="#333">⊥ (fallible)</text>
<title>w19: believes {⊥ (fallible)}, fallible</title>
</svg>