<svg xmlns="http://www.w3.org/2000/svg" viewBox="0 0 1240 900" font-family="Helvetica, Arial, sans-serif">
<rect width="1240" height="900" fill="#ffffff"/>
<text x="20" y="30" font-size="17" fill="#111">RN(◯,∅) — the 22-class catalogue: PLL Hasse diagram, scoped covers (37 edges, sweep 2026-08-24, control = kernel theorem)</text>
<text x="20" y="882" font-size="12" fill="#666">solid: a ⋖[catalogue] b, every interposer excluded by settled cells · dashed grey: the two OPEN cells (ρ12 ⊢? ρ15, ρ20 ⊢? ρ10) — a positive resolution would add that edge · ★ = sweep-discovered class</text>
<line x1="620" y1="804" x2="413" y2="734" stroke="#3556a8" stroke-width="1.4"/>
<line x1="620" y1="804" x2="827" y2="734" stroke="#3556a8" stroke-width="1.4"/>
<line x1="413" y1="694" x2="827" y2="624" stroke="#3556a8" stroke-width="1.4"/>
<line x1="413" y1="694" x2="413" y2="624" stroke="#3556a8" stroke-width="1.4"/>
<line x1="827" y1="694" x2="827" y2="624" stroke="#3556a8" stroke-width="1.4"/>
<line x1="827" y1="584" x2="310" y2="514" stroke="#3556a8" stroke-width="1.4"/>
<line x1="827" y1="584" x2="620" y2="514" stroke="#3556a8" stroke-width="1.4"/>
<line x1="827" y1="584" x2="930" y2="514" stroke="#3556a8" stroke-width="1.4"/>
<line x1="413" y1="584" x2="310" y2="514" stroke="#3556a8" stroke-width="1.4"/>
<line x1="310" y1="474" x2="413" y2="404" stroke="#3556a8" stroke-width="1.4"/>
<line x1="310" y1="474" x2="207" y2="404" stroke="#3556a8" stroke-width="1.4"/>
<line x1="310" y1="474" x2="620" y2="404" stroke="#3556a8" stroke-width="1.4"/>
<line x1="620" y1="474" x2="413" y2="404" stroke="#3556a8" stroke-width="1.4"/>
<line x1="620" y1="474" x2="1033" y2="404" stroke="#3556a8" stroke-width="1.4"/>
<line x1="620" y1="474" x2="827" y2="404" stroke="#3556a8" stroke-width="1.4"/>
<line x1="1033" y1="254" x2="930" y2="184" stroke="#3556a8" stroke-width="1.4"/>
<line x1="413" y1="364" x2="207" y2="294" stroke="#3556a8" stroke-width="1.4"/>
<line x1="413" y1="364" x2="827" y2="294" stroke="#3556a8" stroke-width="1.4"/>
<line x1="413" y1="364" x2="413" y2="294" stroke="#3556a8" stroke-width="1.4"/>
<line x1="930" y1="144" x2="620" y2="74" stroke="#3556a8" stroke-width="1.4"/>
<line x1="620" y1="254" x2="620" y2="184" stroke="#3556a8" stroke-width="1.4"/>
<line x1="207" y1="254" x2="310" y2="184" stroke="#3556a8" stroke-width="1.4"/>
<line x1="207" y1="364" x2="620" y2="294" stroke="#3556a8" stroke-width="1.4"/>
<line x1="207" y1="364" x2="207" y2="294" stroke="#3556a8" stroke-width="1.4"/>
<line x1="930" y1="474" x2="1033" y2="404" stroke="#3556a8" stroke-width="1.4"/>
<line x1="930" y1="474" x2="620" y2="404" stroke="#3556a8" stroke-width="1.4"/>
<line x1="620" y1="144" x2="620" y2="74" stroke="#3556a8" stroke-width="1.4"/>
<line x1="1033" y1="364" x2="1033" y2="294" stroke="#3556a8" stroke-width="1.4"/>
<line x1="1033" y1="364" x2="827" y2="294" stroke="#3556a8" stroke-width="1.4"/>
<line x1="620" y1="364" x2="620" y2="294" stroke="#3556a8" stroke-width="1.4"/>
<line x1="620" y1="364" x2="827" y2="294" stroke="#3556a8" stroke-width="1.4"/>
<line x1="827" y1="254" x2="930" y2="184" stroke="#3556a8" stroke-width="1.4"/>
<line x1="827" y1="254" x2="620" y2="184" stroke="#3556a8" stroke-width="1.4"/>
<line x1="827" y1="364" x2="1033" y2="294" stroke="#3556a8" stroke-width="1.4"/>
<line x1="827" y1="364" x2="413" y2="294" stroke="#3556a8" stroke-width="1.4"/>
<line x1="413" y1="254" x2="310" y2="184" stroke="#3556a8" stroke-width="1.4"/>
<line x1="310" y1="144" x2="620" y2="74" stroke="#3556a8" stroke-width="1.4"/>
<line x1="207" y1="254" x2="620" y2="184" stroke="#999" stroke-width="1.3" stroke-dasharray="5,4"/>
<text x="417" y="225" font-size="12" fill="#888">?</text>
<line x1="413" y1="254" x2="930" y2="184" stroke="#999" stroke-width="1.3" stroke-dasharray="5,4"/>
<text x="676" y="225" font-size="12" fill="#888">?</text>
<circle cx="620" cy="830" r="4" fill="#16305e"/>
<text x="620" y="818" font-size="14" font-weight="bold" fill="#16305e" text-anchor="middle">ρ0</text>
<text x="620" y="850" font-size="11.5" fill="#333" text-anchor="middle">⊥</text>
<circle cx="413" cy="720" r="4" fill="#16305e"/>
<text x="413" y="708" font-size="14" font-weight="bold" fill="#16305e" text-anchor="middle">ρ2</text>
<text x="413" y="740" font-size="11.5" fill="#333" text-anchor="middle">◯⊥</text>
<circle cx="827" cy="720" r="4" fill="#16305e"/>
<text x="827" y="708" font-size="14" font-weight="bold" fill="#16305e" text-anchor="middle">ρ3</text>
<text x="827" y="740" font-size="11.5" fill="#333" text-anchor="middle">¬◯⊥</text>
<circle cx="413" cy="610" r="4" fill="#16305e"/>
<text x="413" y="598" font-size="14" font-weight="bold" fill="#16305e" text-anchor="middle">ρ5</text>
<text x="413" y="630" font-size="11.5" fill="#333" text-anchor="middle">¬¬◯⊥</text>
<circle cx="827" cy="610" r="4" fill="#16305e"/>
<text x="827" y="598" font-size="14" font-weight="bold" fill="#16305e" text-anchor="middle">ρ4</text>
<text x="827" y="630" font-size="11.5" fill="#333" text-anchor="middle">¬◯⊥ ∨ ◯⊥</text>
<circle cx="310" cy="500" r="4" fill="#16305e"/>
<text x="310" y="488" font-size="14" font-weight="bold" fill="#16305e" text-anchor="middle">ρ6</text>
<text x="310" y="520" font-size="11.5" fill="#333" text-anchor="middle">¬¬◯⊥ ∨ ¬◯⊥</text>
<circle cx="620" cy="500" r="4" fill="#16305e"/>
<text x="620" y="488" font-size="14" font-weight="bold" fill="#16305e" text-anchor="middle">ρ7</text>
<text x="620" y="520" font-size="11.5" fill="#333" text-anchor="middle">◯¬◯⊥</text>
<circle cx="930" cy="500" r="4" fill="#16305e"/>
<text x="930" y="488" font-size="14" font-weight="bold" fill="#16305e" text-anchor="middle">ρ14</text>
<text x="930" y="520" font-size="11.5" fill="#333" text-anchor="middle">ρ9 ⊃ ρ4</text>
<circle cx="207" cy="390" r="4" fill="#16305e"/>
<text x="207" y="378" font-size="14" font-weight="bold" fill="#16305e" text-anchor="middle">ρ13★</text>
<text x="207" y="410" font-size="11.5" fill="#333" text-anchor="middle">ρ8 ⊃ (◯⊥ ∨ ¬◯⊥)</text>
<circle cx="413" cy="390" r="4" fill="#16305e"/>
<text x="413" y="378" font-size="14" font-weight="bold" fill="#16305e" text-anchor="middle">ρ9</text>
<text x="413" y="410" font-size="11.5" fill="#333" text-anchor="middle">¬¬◯⊥ ∨ ◯¬◯⊥</text>
<circle cx="620" cy="390" r="4" fill="#16305e"/>
<text x="620" y="378" font-size="14" font-weight="bold" fill="#16305e" text-anchor="middle">ρ17★</text>
<text x="620" y="410" font-size="11.5" fill="#333" text-anchor="middle">ρ5 ∨ ρ14</text>
<circle cx="827" cy="390" r="4" fill="#16305e"/>
<text x="827" y="378" font-size="14" font-weight="bold" fill="#16305e" text-anchor="middle">ρ19★</text>
<text x="827" y="410" font-size="11.5" fill="#333" text-anchor="middle">ρ11 ⊃ ρ7</text>
<circle cx="1033" cy="390" r="4" fill="#16305e"/>
<text x="1033" y="378" font-size="14" font-weight="bold" fill="#16305e" text-anchor="middle">ρ16★</text>
<text x="1033" y="410" font-size="11.5" fill="#333" text-anchor="middle">ρ14 ∨ ρ7</text>
<circle cx="207" cy="280" r="4" fill="#16305e"/>
<text x="207" y="268" font-size="14" font-weight="bold" fill="#16305e" text-anchor="middle">ρ12</text>
<text x="207" y="300" font-size="11.5" fill="#333" text-anchor="middle">ρ8 ⊃ ◯¬◯⊥</text>
<circle cx="413" cy="280" r="4" fill="#16305e"/>
<text x="413" y="268" font-size="14" font-weight="bold" fill="#16305e" text-anchor="middle">ρ20★</text>
<text x="413" y="300" font-size="11.5" fill="#333" text-anchor="middle">ρ11 ⊃ ρ6</text>
<circle cx="620" cy="280" r="4" fill="#16305e"/>
<text x="620" y="268" font-size="14" font-weight="bold" fill="#16305e" text-anchor="middle">ρ11</text>
<text x="620" y="300" font-size="11.5" fill="#333" text-anchor="middle">◯¬◯⊥ ⊃ (¬◯⊥ ∨ ◯⊥)</text>
<circle cx="827" cy="280" r="4" fill="#16305e"/>
<text x="827" y="268" font-size="14" font-weight="bold" fill="#16305e" text-anchor="middle">ρ18★</text>
<text x="827" y="300" font-size="11.5" fill="#333" text-anchor="middle">ρ14 ∨ ρ9</text>
<circle cx="1033" cy="280" r="4" fill="#16305e"/>
<text x="1033" y="268" font-size="14" font-weight="bold" fill="#16305e" text-anchor="middle">ρ8</text>
<text x="1033" y="300" font-size="11.5" fill="#333" text-anchor="middle">¬¬◯⊥ ⊃ ◯⊥</text>
<circle cx="310" cy="170" r="4" fill="#16305e"/>
<text x="310" y="158" font-size="14" font-weight="bold" fill="#16305e" text-anchor="middle">ρ21★</text>
<text x="310" y="190" font-size="11.5" fill="#333" text-anchor="middle">ρ14 ⊃ ρ7</text>
<circle cx="620" cy="170" r="4" fill="#16305e"/>
<text x="620" y="158" font-size="14" font-weight="bold" fill="#16305e" text-anchor="middle">ρ15★</text>
<text x="620" y="190" font-size="11.5" fill="#333" text-anchor="middle">ρ11 ∨ ρ7</text>
<circle cx="930" cy="170" r="4" fill="#16305e"/>
<text x="930" y="158" font-size="14" font-weight="bold" fill="#16305e" text-anchor="middle">ρ10</text>
<text x="930" y="190" font-size="11.5" fill="#333" text-anchor="middle">ρ8 ∨ ¬¬◯⊥</text>
<circle cx="620" cy="60" r="4" fill="#16305e"/>
<text x="620" y="48" font-size="14" font-weight="bold" fill="#16305e" text-anchor="middle">ρ1</text>
<text x="620" y="80" font-size="11.5" fill="#333" text-anchor="middle">⊤</text>
</svg>